<?xml version="1.0" encoding="utf-8"?>
<!-- Generator: Adobe Illustrator 22.0.0, SVG Export Plug-In . SVG Version: 6.00 Build 0)  -->
<svg version="1.1" id="Layer_1" xmlns="http://www.w3.org/2000/svg" xmlns:xlink="http://www.w3.org/1999/xlink" x="0px" y="0px"
	 viewBox="0 0 135 135" style="enable-background:new 0 0 135 135;" xml:space="preserve">
<style type="text/css">
	.st0{fill:#F1A417;}
	.st1{fill:#FFFFFF;}
	.st2{enable-background:new    ;}
	.st3{fill:#FFB900;}
</style>
<title>Asset 1</title>
<path class="st0" d="M31.5,41.9L0,22.7c1.6-1,3.6-2.3,5.6-3.5c1.9-1.3,4-2.3,6.1-3.2c3.1-1.1,4.2-3.6,5.2-6.3
	c1.2-3.1,2.5-6.1,3.9-9.7C26.1,2.8,31.2,5.2,36.2,8c1.7,0.9,2.7,1,3.8-0.6c0.2-0.3,0.5-0.5,0.7-0.8c3.5-3.7,3.7-3.9,7.7-1
	c8.5,6.2,17,12.5,25.2,19.1c6.5,5.2,12.7,10.8,18.7,16.6c5.6,5.5,10.8,11.5,15.9,17.5c4.2,4.9,8.2,9.9,12.1,15
	c3.9,5.1,7.5,10.4,11.1,15.8c0.3,0.8,0.2,1.6-0.3,2.3c-0.7,1.1-1.6,2-2.7,2.6c-2.7,1.3-2.2,2.9-1,5.1c2.6,4.7,5,9.6,7.6,14.7
	c-4.3,1.7-8.3,3-12.1,4.7c-1.5,0.7-2.7,1.8-3.6,3.2c-2.3,3.9-4.3,8-6.4,12c-0.2,0.3-0.5,0.6-0.8,0.9L93,103.4l4.7-4.3
	c-2.9-3.7-5.7-7.3-8.6-10.8c-1.9-2.4-3.8-4.8-5.9-7c-6.5-6.8-13-13.6-19.7-20.2c-3.9-3.9-7.9-7.6-12-11.2C47,46,42.3,42.3,37.6,38.5
	c-1.2-0.9-2.2-1.3-3.3,0.4C33.5,40.1,32.6,41.1,31.5,41.9z M24.3,27.3c32.7,22.3,60.9,50.6,83.3,83.3c2.6-2.2,4.8-4.2,7.1-6.1
	c4.9-4.2,9.8-8.4,14.6-12.7c0.5-0.7,0.7-1.6,0.4-2.4c-8.9-13.8-19.1-26.8-30.4-38.7c-9.2-10.1-19.1-19.4-29.8-27.9
	c-7.6-5.9-15.4-11.3-23-17c-1.5-1.1-2.4-0.9-3.6,0.4c-5.6,6.3-11.3,12.5-16.9,18.7C25.3,25.7,24.8,26.5,24.3,27.3z M124.9,97.5
	c-5.4,4.7-10.4,8.9-15.2,13.3c-1.5,1.3-2.6,1.8-4.4,0.6c-2.6-1.7-5.4-3.1-8.6-4.9l15.5,25.7c2.2-4,4.2-7.9,6.4-11.7
	c0.8-1.3,1.9-2.3,3.2-2.9c3.5-1.6,7.2-2.9,11.2-4.4L124.9,97.5z M2.6,22.7l25.7,15.4L22,27.2L37.4,10L21.5,1.9
	c-1.3,3.2-2.5,5.8-3.4,8.5c-1,2.9-2.5,5.3-5.6,6.7C9.1,18.5,5.9,20.7,2.6,22.7z M34.4,36.4c-2.8-2.1-5.4-3.9-7.9-5.7L26,31.1
	l5.3,9.3L34.4,36.4z M103.6,108.7l0.4-0.7l-5.7-7.6l-3.5,3.5L103.6,108.7z"/>
<path class="st1" d="M24.3,27.3c0.5-0.8,1-1.6,1.6-2.4c5.6-6.3,11.3-12.5,16.9-18.7c1.2-1.3,2.1-1.5,3.6-0.4
	c7.6,5.7,15.4,11.2,23,17c10.7,8.4,20.7,17.8,29.8,27.9c11.3,11.9,21.5,24.9,30.4,38.7c0.3,0.8,0.1,1.7-0.4,2.4
	c-4.8,4.3-9.7,8.5-14.6,12.7c-2.2,1.9-4.5,3.8-7.1,6.1C85.2,77.9,57,49.7,24.3,27.3z"/>
<path class="st1" d="M124.9,97.5l8.2,15.8c-4,1.5-7.7,2.8-11.2,4.4c-1.3,0.6-2.4,1.6-3.2,2.9c-2.3,3.8-4.3,7.7-6.4,11.7l-15.5-25.7
	c3.1,1.8,5.9,3.2,8.6,4.9c1.8,1.1,2.9,0.7,4.4-0.6C114.6,106.5,119.5,102.3,124.9,97.5z"/>
<path class="st1" d="M2.6,22.7c3.3-1.9,6.5-4.1,9.9-5.6c3.1-1.4,4.6-3.7,5.6-6.7c1-2.7,2.1-5.3,3.4-8.5L37.4,10L22,27.2l6.3,10.9
	L2.6,22.7z"/>
<path class="st1" d="M34.4,36.4l-3,4l-5.3-9.3l0.5-0.4C29.1,32.5,31.6,34.3,34.4,36.4z"/>
<path class="st1" d="M103.7,108.7l-8.8-4.8l3.5-3.5l5.7,7.6L103.7,108.7z"/>
<g class="st2">
	<path class="st3" d="M42.8,24.1c-0.6,0.6-1.3,0.9-2.2,0.8c-0.8-0.1-1.6-0.5-2.4-1.3c-0.9-0.9-1.5-1.7-1.8-2.4l0.5-0.5
		c0.3,0.8,0.9,1.6,1.7,2.4c0.6,0.6,1.2,1,1.9,1c0.6,0.1,1.2-0.1,1.6-0.6c0.3-0.3,0.5-0.6,0.5-0.9c0.1-0.3,0-0.7-0.1-1.1
		c-0.1-0.4-0.3-1-0.7-1.7c-0.5-1-0.7-1.8-0.7-2.4c0-0.6,0.3-1.2,0.8-1.7c0.6-0.6,1.2-0.8,2-0.7c0.8,0.1,1.5,0.5,2.2,1.2
		c0.7,0.7,1.2,1.5,1.6,2.4l-0.6,0.3c-0.4-0.9-0.8-1.6-1.4-2.2c-0.6-0.6-1.1-0.9-1.7-0.9c-0.6-0.1-1.1,0.1-1.5,0.6
		c-0.3,0.3-0.5,0.6-0.5,0.8c-0.1,0.3-0.1,0.6,0,1c0.1,0.4,0.3,0.9,0.7,1.7c0.4,0.8,0.6,1.4,0.7,1.9c0.1,0.5,0.1,0.9,0,1.3
		C43.4,23.4,43.2,23.7,42.8,24.1z"/>
</g>
<g class="st2">
	<path class="st3" d="M45,30.1l-2.9-2.9l5.2-5.2l2.9,2.9l-0.3,0.3l-2.5-2.5l-2,2l2.4,2.4l-0.3,0.3L45.1,25l-2.2,2.2l2.5,2.5L45,30.1
		z"/>
	<path class="st3" d="M48.9,29.4l-2.3,2.3l-0.4-0.4l5.2-5.2l1.2,1.2c0.6,0.6,1,1.3,1.1,1.8s-0.1,1.1-0.6,1.6
		c-0.4,0.4-0.7,0.6-1.2,0.6s-0.9-0.1-1.4-0.3l-1,3.8l-0.4-0.4l0.9-3.6L48.9,29.4z M49.2,29.1l1,1c0.4,0.4,0.9,0.7,1.3,0.7
		c0.4,0,0.9-0.1,1.2-0.5c0.4-0.4,0.6-0.8,0.5-1.2c-0.1-0.4-0.4-0.9-0.9-1.4l-0.9-0.9L49.2,29.1z"/>
	<path class="st3" d="M58.9,33.5l0.4,0.4l-7.2,3.3l-0.3-0.3l3.3-7.2l0.4,0.4L53.2,35c-0.3,0.7-0.6,1.3-0.8,1.6
		c0.2-0.1,0.6-0.3,1.1-0.6L58.9,33.5z"/>
	<path class="st3" d="M59.2,40.6l-2.1-2.1l-2.6,1.1l-0.4-0.4l7.4-3.2l0.2,0.2l-3.2,7.3l-0.4-0.4L59.2,40.6z M57.5,38.3l1.9,1.9
		l1.2-2.6c0.1-0.2,0.2-0.5,0.4-0.8c-0.3,0.2-0.6,0.3-0.8,0.4L57.5,38.3z"/>
	<path class="st3" d="M63,48.1l-0.4-0.4l1.5-7.8l0,0c-0.5,0.6-0.9,1-1.2,1.3l-3.4,3.4l-0.4-0.4l5.2-5.2l0.4,0.4l-1.5,7.7l0,0
		c0.4-0.5,0.8-0.9,1.2-1.3l3.4-3.4l0.4,0.4L63,48.1z"/>
	<path class="st3" d="M65.9,51l-0.4-0.4l4.9-4.9L68.7,44l0.3-0.3l3.8,3.8l-0.3,0.3l-1.7-1.7L65.9,51z"/>
</g>
<g class="st2">
	<path class="st3" d="M71.4,56.5l7.5-7.5l0.5,0.5l-7,7l3.6,3.6l-0.5,0.5L71.4,56.5z"/>
</g>
<g class="st2">
	<path class="st3" d="M79.3,64.4l-2.9-2.9l5.2-5.2l2.9,2.9l-0.3,0.3L81.7,57l-2,2l2.4,2.4l-0.3,0.3l-2.4-2.4l-2.2,2.2l2.5,2.5
		L79.3,64.4z"/>
	<path class="st3" d="M84.9,66.3l-2.1-2.1l-2.6,1.1l-0.4-0.4l7.4-3.2l0.2,0.2l-3.2,7.3l-0.4-0.4L84.9,66.3z M83.2,63.9l1.9,1.9
		l1.2-2.6c0.1-0.2,0.2-0.5,0.4-0.8c-0.3,0.2-0.6,0.3-0.8,0.4L83.2,63.9z"/>
	<path class="st3" d="M91.6,71.3c-0.9,0.9-1.8,1.3-2.7,1.3c-0.9,0-1.8-0.5-2.7-1.4L84.9,70l5.2-5.2l1.4,1.4c0.8,0.8,1.3,1.7,1.3,2.6
		C92.8,69.6,92.4,70.5,91.6,71.3z M91.1,70.9c0.8-0.8,1.1-1.5,1.1-2.3c0-0.8-0.4-1.5-1.1-2.2l-1-1L85.6,70l0.9,0.9
		C88,72.5,89.6,72.5,91.1,70.9z"/>
	<path class="st3" d="M93,78.1l-2.9-2.9l5.2-5.2l2.9,2.9l-0.3,0.3l-2.5-2.5l-2,2l2.4,2.4l-0.3,0.3L93,73l-2.2,2.2l2.5,2.5L93,78.1z"
		/>
	<path class="st3" d="M96.8,77.3l-2.3,2.3l-0.4-0.4l5.2-5.2l1.2,1.2c0.7,0.6,1,1.3,1.1,1.8c0.1,0.6-0.1,1.1-0.6,1.5
		c-0.4,0.4-0.7,0.6-1.2,0.6c-0.4,0.1-0.9-0.1-1.4-0.3l-1,3.8l-0.4-0.4l0.9-3.6L96.8,77.3z M97.1,77l1,1c0.4,0.4,0.9,0.7,1.3,0.7
		c0.4,0,0.9-0.1,1.2-0.5c0.4-0.4,0.6-0.8,0.5-1.2s-0.4-0.9-0.9-1.4l-0.9-0.9L97.1,77z"/>
</g>
<g class="st2">
	<path class="st3" d="M104.9,82.1l2.2,2.2l-0.4,0.4l-2.2-2.2l-2.2,2.2l-0.4-0.4l2.2-2.2l-2.2-2.2l0.4-0.4l2.2,2.2l2.2-2.2l0.4,0.4
		L104.9,82.1z"/>
	<path class="st3" d="M110.8,88.1l2.2,2.2l-0.4,0.4l-2.2-2.2l-2.2,2.2l-0.4-0.4l2.2-2.2l-2.2-2.2l0.4-0.4l2.2,2.2l2.2-2.2l0.4,0.4
		L110.8,88.1z"/>
	<path class="st3" d="M116.8,94.1l2.2,2.2l-0.4,0.4l-2.2-2.2l-2.2,2.2l-0.4-0.4l2.2-2.2l-2.2-2.2l0.4-0.4l2.2,2.2l2.2-2.2l0.4,0.4
		L116.8,94.1z"/>
</g>
</svg>
