<svg xmlns="http://www.w3.org/2000/svg" viewBox="0 0 135.03 134.99"><defs><style>.cls-1{fill:#f1a417;}.cls-2{fill:#fff;}.cls-3{font-size:14.83px;fill:#ffb900;font-family:OpenSans-Light, Open Sans;}</style></defs><title>Asset 1</title><g id="Layer_2" data-name="Layer 2"><g id="Layer_1-2" data-name="Layer 1"><path class="cls-1" d="M31.48,41.92,0,22.72c1.64-1,3.57-2.31,5.56-3.48A38.37,38.37,0,0,1,11.67,16c3.06-1.13,4.2-3.55,5.23-6.25,1.18-3.07,2.45-6.1,3.9-9.7,5.32,2.71,10.43,5.17,15.39,7.9,1.65.91,2.73,1,3.81-.58a6.78,6.78,0,0,1,.74-.78c3.53-3.67,3.69-3.89,7.7-1,8.5,6.21,17,12.47,25.17,19.07,6.47,5.22,12.73,10.75,18.66,16.57,5.6,5.51,10.76,11.5,15.91,17.45q6.31,7.29,12.12,15c3.87,5.12,7.46,10.45,11.06,15.77a2.57,2.57,0,0,1-.27,2.29,7.92,7.92,0,0,1-2.67,2.61c-2.7,1.35-2.22,2.9-1,5.09,2.63,4.73,5,9.61,7.62,14.71-4.33,1.67-8.27,3-12.06,4.73a8.39,8.39,0,0,0-3.59,3.16c-2.31,3.91-4.31,8-6.45,12a4.48,4.48,0,0,1-.76.91L93,103.45l4.7-4.3C94.79,95.49,92,91.87,89.07,88.3c-1.91-2.36-3.79-4.76-5.89-7-6.5-6.79-13-13.56-19.68-20.21-3.87-3.86-7.9-7.57-12-11.16C47,46.05,42.27,42.32,37.62,38.54c-1.16-.94-2.22-1.29-3.28.42A16.91,16.91,0,0,1,31.48,41.92ZM24.33,27.34a318.44,318.44,0,0,1,83.25,83.26c2.6-2.23,4.84-4.15,7.06-6.07,4.88-4.22,9.78-8.41,14.57-12.71a2.56,2.56,0,0,0,.43-2.41A268.2,268.2,0,0,0,99.22,50.7,243.58,243.58,0,0,0,69.37,22.85C61.81,17,54,11.54,46.37,5.81c-1.51-1.14-2.43-.89-3.58.4-5.61,6.26-11.28,12.47-16.9,18.73A20.09,20.09,0,0,0,24.33,27.34Zm100.59,70.2c-5.4,4.73-10.36,8.95-15.17,13.35-1.47,1.34-2.59,1.76-4.38.63-2.64-1.68-5.45-3.12-8.58-4.88l15.48,25.7c2.16-4,4.17-7.92,6.44-11.71a7.54,7.54,0,0,1,3.19-2.89c3.54-1.59,7.22-2.86,11.21-4.4ZM2.6,22.67,28.26,38.09,22,27.17,37.37,10,21.55,1.88c-1.3,3.22-2.46,5.82-3.41,8.5-1.05,2.95-2.47,5.29-5.61,6.66C9.08,18.55,5.93,20.74,2.6,22.67ZM34.44,36.42c-2.83-2.07-5.36-3.9-7.89-5.74l-.5.43,5.34,9.31Zm69.21,72.29.41-.72-5.73-7.6-3.47,3.47Z"/><path class="cls-2" d="M24.33,27.34a20.09,20.09,0,0,1,1.56-2.4c5.62-6.26,11.29-12.47,16.9-18.73,1.15-1.29,2.07-1.54,3.58-.4,7.63,5.73,15.44,11.23,23,17A243.58,243.58,0,0,1,99.22,50.7a268.2,268.2,0,0,1,30.42,38.71,2.56,2.56,0,0,1-.43,2.41c-4.79,4.3-9.69,8.49-14.57,12.71-2.22,1.92-4.46,3.84-7.06,6.07A318.44,318.44,0,0,0,24.33,27.34Z"/><path class="cls-2" d="M124.92,97.54l8.19,15.8c-4,1.54-7.67,2.81-11.21,4.4a7.54,7.54,0,0,0-3.19,2.89c-2.27,3.79-4.28,7.73-6.44,11.71l-15.48-25.7c3.13,1.76,5.94,3.2,8.58,4.88,1.79,1.13,2.91.71,4.38-.63C114.56,106.49,119.52,102.27,124.92,97.54Z"/><path class="cls-2" d="M2.6,22.67c3.33-1.93,6.48-4.12,9.93-5.63,3.14-1.37,4.56-3.71,5.61-6.66.95-2.68,2.11-5.28,3.41-8.5L37.37,10,22,27.17l6.25,10.92Z"/><path class="cls-2" d="M34.44,36.42l-3,4-5.34-9.31.5-.43C29.08,32.52,31.61,34.35,34.44,36.42Z"/><path class="cls-2" d="M103.65,108.71l-8.79-4.85,3.47-3.47,5.73,7.6Z"/><text class="cls-3" transform="translate(35.71 20.81) rotate(45)">S</text><text class="cls-3" transform="translate(41.42 26.52) rotate(45) scale(0.7)">ERVANT</text><text class="cls-3" transform="translate(67.6 52.7) rotate(45)"><tspan xml:space="preserve"> L</tspan></text><text class="cls-3" transform="translate(75.71 60.81) rotate(45) scale(0.7)">EADER</text><text class="cls-3" transform="translate(97.75 82.85) rotate(45)">+++</text></g></g></svg>