<?xml version="1.0" encoding="utf-8"?>
<!-- Generator: Adobe Illustrator 22.0.0, SVG Export Plug-In . SVG Version: 6.00 Build 0)  -->
<svg version="1.1" id="Layer_1" xmlns="http://www.w3.org/2000/svg" xmlns:xlink="http://www.w3.org/1999/xlink" x="0px" y="0px"
	 viewBox="0 0 113.2 113.6" style="enable-background:new 0 0 113.2 113.6;" xml:space="preserve">
<style type="text/css">
	.st0{fill:#FFB600;}
	.st1{enable-background:new    ;}
	.st2{fill:#FFFFFF;}
</style>
<title>Asset 2</title>
<polygon class="st0" points="113.2,113.6 0,0 29.6,0 113.2,84 "/>
<g class="st1">
	<path class="st2" d="M31.2,19c-0.6,0.6-1.3,0.8-2,0.8c-0.8-0.1-1.5-0.5-2.2-1.2c-0.9-0.9-1.4-1.6-1.7-2.3l0.5-0.5
		c0.3,0.7,0.8,1.5,1.6,2.3c0.6,0.6,1.2,0.9,1.8,1s1.1-0.1,1.6-0.5c0.3-0.3,0.4-0.5,0.5-0.8c0.1-0.3,0-0.6-0.1-1s-0.3-0.9-0.7-1.6
		c-0.5-1-0.7-1.7-0.7-2.3c0-0.6,0.3-1.1,0.7-1.6c0.5-0.5,1.2-0.8,1.9-0.7c0.7,0.1,1.4,0.4,2.1,1.1c0.7,0.7,1.2,1.4,1.5,2.2l-0.6,0.2
		c-0.3-0.8-0.8-1.5-1.3-2c-0.5-0.5-1.1-0.8-1.6-0.9c-0.5-0.1-1,0.1-1.4,0.5c-0.3,0.3-0.4,0.5-0.5,0.8c-0.1,0.3-0.1,0.6,0,0.9
		c0.1,0.3,0.3,0.9,0.6,1.6c0.4,0.7,0.6,1.3,0.7,1.8c0.1,0.5,0.1,0.9,0,1.2C31.8,18.3,31.6,18.6,31.2,19z"/>
</g>
<g class="st1">
	<path class="st2" d="M33.3,24.7L30.6,22l4.9-4.9l2.7,2.7L37.9,20l-2.4-2.4l-1.9,1.9l2.2,2.2l-0.3,0.3l-2.2-2.2L31.3,22l2.4,2.4
		L33.3,24.7z"/>
	<path class="st2" d="M36.9,24l-2.2,2.2l-0.3-0.3l4.9-4.9l1.2,1.2c0.6,0.6,1,1.2,1,1.7c0.1,0.5-0.1,1-0.6,1.5
		c-0.3,0.3-0.7,0.5-1.1,0.6c-0.4,0.1-0.8,0-1.3-0.3L37.7,29l-0.4-0.4l0.9-3.4L36.9,24z M37.2,23.7l0.9,0.9c0.4,0.4,0.8,0.6,1.2,0.7
		c0.4,0,0.8-0.1,1.2-0.5c0.4-0.4,0.5-0.8,0.5-1.2c-0.1-0.4-0.3-0.8-0.8-1.4l-0.8-0.8L37.2,23.7z"/>
	<path class="st2" d="M46.4,27.9l0.4,0.4L40,31.3L39.7,31l3.1-6.8l0.4,0.4L41,29.2c-0.3,0.7-0.6,1.2-0.8,1.5
		c0.2-0.1,0.6-0.3,1.1-0.5L46.4,27.9z"/>
	<path class="st2" d="M46.7,34.5l-2-2l-2.4,1.1l-0.4-0.4l6.9-3l0.2,0.2l-3,6.9l-0.4-0.4L46.7,34.5z M45.1,32.3l1.8,1.8l1.1-2.5
		c0.1-0.2,0.2-0.5,0.4-0.8c-0.3,0.2-0.5,0.3-0.8,0.4L45.1,32.3z"/>
	<path class="st2" d="M50.3,41.6l-0.3-0.3l1.5-7.3l0,0c-0.5,0.5-0.9,1-1.1,1.2L47,38.4L46.7,38l4.9-4.9l0.3,0.3l-1.5,7.3l0,0
		c0.4-0.4,0.8-0.8,1.1-1.2l3.2-3.2l0.3,0.3L50.3,41.6z"/>
	<path class="st2" d="M53,44.3l-0.3-0.3l4.6-4.6l-1.6-1.6l0.3-0.3l3.6,3.6l-0.3,0.3l-1.6-1.6L53,44.3z"/>
</g>
<g class="st1">
	<path class="st2" d="M58.2,49.5l7.1-7.1l0.5,0.5l-6.6,6.6l3.4,3.4L62,53.3L58.2,49.5z"/>
</g>
<g class="st1">
	<path class="st2" d="M65.6,57l-2.7-2.7l4.9-4.9l2.7,2.7l-0.3,0.3L67.9,50L66,51.9l2.2,2.2l-0.3,0.3l-2.2-2.2l-2.1,2.1l2.4,2.4
		L65.6,57z"/>
	<path class="st2" d="M70.9,58.7l-2-2l-2.4,1.1L66,57.4l6.9-3l0.2,0.2l-3,6.9l-0.4-0.4L70.9,58.7z M69.3,56.5l1.8,1.8l1.1-2.5
		c0.1-0.2,0.2-0.5,0.4-0.8c-0.3,0.2-0.5,0.3-0.8,0.4L69.3,56.5z"/>
	<path class="st2" d="M73.4,60.4l-2.2,2.2l-0.3-0.3l4.9-4.9l1.2,1.2c0.6,0.6,1,1.2,1,1.7c0.1,0.5-0.1,1-0.6,1.5
		c-0.3,0.3-0.7,0.5-1.1,0.6c-0.4,0.1-0.8,0-1.3-0.3l-0.9,3.6l-0.4-0.4l0.9-3.4L73.4,60.4z M73.7,60.1l0.9,0.9
		c0.4,0.4,0.8,0.6,1.2,0.7c0.4,0,0.8-0.1,1.2-0.5c0.4-0.4,0.5-0.8,0.5-1.2c-0.1-0.4-0.3-0.8-0.8-1.4L75.9,58L73.7,60.1z"/>
	<path class="st2" d="M78.6,69.9l-0.3-0.3l1.5-7.3l0,0c-0.5,0.5-0.9,1-1.1,1.2l-3.2,3.2L75,66.3l4.9-4.9l0.3,0.3L78.8,69l0,0
		c0.4-0.4,0.8-0.8,1.1-1.2l3.2-3.2l0.3,0.3L78.6,69.9z"/>
	<path class="st2" d="M82.7,74L80,71.3l4.9-4.9l2.7,2.7l-0.3,0.3L85,67.1l-1.9,1.9l2.2,2.2L85,71.5l-2.2-2.2l-2.1,2.1l2.4,2.4
		L82.7,74z"/>
	<path class="st2" d="M86.3,73.3l-2.2,2.2l-0.3-0.3l4.9-4.9l1.2,1.2c0.6,0.6,1,1.2,1,1.7s-0.1,1-0.6,1.5c-0.3,0.3-0.7,0.5-1.1,0.6
		c-0.4,0.1-0.8,0-1.3-0.3l-0.9,3.6L86.6,78l0.9-3.4L86.3,73.3z M86.6,73l0.9,0.9c0.4,0.4,0.8,0.6,1.2,0.7c0.4,0,0.8-0.1,1.2-0.5
		c0.4-0.4,0.5-0.8,0.5-1.2c-0.1-0.4-0.3-0.8-0.8-1.4l-0.8-0.8L86.6,73z"/>
</g>
<g class="st1">
	<path class="st2" d="M93.9,77.9L96,80l-0.4,0.4l-2.1-2.1l-2.1,2.1L91,80l2.1-2.1L91,75.8l0.4-0.4l2.1,2.1l2.1-2.1l0.4,0.4
		L93.9,77.9z"/>
	<path class="st2" d="M99.6,83.5l2.1,2.1l-0.4,0.4l-2.1-2.1L97.1,86l-0.4-0.4l2.1-2.1l-2.1-2.1l0.4-0.4l2.1,2.1l2.1-2.1l0.4,0.4
		L99.6,83.5z"/>
</g>
</svg>
