<svg xmlns="http://www.w3.org/2000/svg" viewBox="0 0 103.24 102.49"><defs><style>.cls-1{fill:#ffb600;}.cls-2{fill:#e6a400;}.cls-3{fill:#8f6600;}.cls-4{fill:#7d662d;}.cls-5{fill:#fff;}</style></defs><title>Asset 3</title><g id="Layer_2" data-name="Layer 2"><g id="Layer_1-2" data-name="Layer 1"><path class="cls-1" d="M71.82,79.13c-42.22-41.1-4.83-5.95-47-47-.29-.29-.59-.56-.89-.84a10.2,10.2,0,0,1-4.71-4.54,2.79,2.79,0,0,1,.94-1.54q4.09-4.25,8.22-8.45a2.73,2.73,0,0,1,1.66-1c1.16-1.05,2-3.05,3.41-3s2.27,1.87,3.36,2.93C80.82,58.47,45.26,25.11,89.34,68c1,1,1.23,1.57.06,2.49a26,26,0,0,0-2.17,2.16,2.73,2.73,0,0,1-.88,1.56Q82.18,78.49,78,82.78a3,3,0,0,1-1.37.93c-2.11-.68-3.24-2.5-4.63-4A2.18,2.18,0,0,1,71.82,79.13Z"/><path class="cls-2" d="M76.45,83.63q5.39-5.5,10.78-11l15,14.71a2.78,2.78,0,0,1,1,1.31c-1-.07-2-.13-2.91-.21-3.82-.32-7.64-.6-11.45-1-1-.11-1.31.1-1.17,1.17.56,4.61,1,9.23,1.55,13.85-.61.15-.77-.33-1-.58-6.23-6-12.44-12.13-18.7-18.15-.88-.85-1-1.37,0-2.17s1.56-1.62,2.33-2.43l.24.24c-.09.91-.85,1.35-1.38,1.93s-.54.93.31,1.1C72.82,82.77,74.58,83.44,76.45,83.63Z"/><path class="cls-2" d="M30,15.71l-10.72,11c.34,2.49,1.44,4.81,1.78,7.3-.68,1.06-1.1.14-1.5-.25Q12.78,27.24,6,20.64L0,14.77c.34-.51.78-.24,1.14-.21q6.18.49,12.37,1c1.79.15,1.79.15,1.58-1.71-.45-4.06-.91-8.12-1.35-12.18A2.28,2.28,0,0,1,13.85,0Z"/><path class="cls-3" d="M21.05,34c-.91-2.35-2.05-4.66-1.78-7.3l4.61,4.51Z"/><path class="cls-4" d="M76.45,83.63c-.43.48-.94.27-1.43.16l-4.76-1.13c-.7-.17-1-.46-.36-1.1s1.44-1.46,2.16-2.19Z"/><path class="cls-5" d="M45.47,40.57a2.4,2.4,0,0,1-2,.8,3.78,3.78,0,0,1-2.26-1.16A7.6,7.6,0,0,1,39.43,38l.48-.5a7.11,7.11,0,0,0,1.67,2.23,3.11,3.11,0,0,0,1.79.94,1.8,1.8,0,0,0,1.55-.57,1.63,1.63,0,0,0,.47-.84,2.11,2.11,0,0,0-.09-1,9.35,9.35,0,0,0-.68-1.57,5.36,5.36,0,0,1-.74-2.28,2.42,2.42,0,0,1,2.6-2.29,3.43,3.43,0,0,1,2.11,1,6.45,6.45,0,0,1,1.54,2.21l-.6.25a6.06,6.06,0,0,0-1.35-2,2.82,2.82,0,0,0-1.63-.85,1.65,1.65,0,0,0-1.43.55,1.83,1.83,0,0,0-.49.8,1.91,1.91,0,0,0,0,.91,9,9,0,0,0,.66,1.58,8.41,8.41,0,0,1,.73,1.77,2.53,2.53,0,0,1,0,1.22A2.25,2.25,0,0,1,45.47,40.57Z"/><path class="cls-5" d="M47.67,46.24,44.91,43.6l4.83-5.05,2.75,2.64-.31.33-2.4-2.3L48,41.12l2.27,2.18-.31.32-2.27-2.17-2.07,2.16L48,45.91Z"/><path class="cls-5" d="M51.26,45.47l-2.1,2.2-.35-.34,4.83-5,1.2,1.15a3.12,3.12,0,0,1,1,1.67,1.71,1.71,0,0,1-.55,1.47,1.9,1.9,0,0,1-1.09.6A2,2,0,0,1,53,46.9l-.83,3.61-.42-.4.8-3.44Zm.29-.3,1,.92a2.1,2.1,0,0,0,1.26.66,1.64,1.64,0,0,0,1.61-1.67,2.57,2.57,0,0,0-.87-1.34l-.84-.8Z"/><path class="cls-5" d="M60.81,49.16l.38.37-6.71,3.23-.31-.29,2.95-6.85.37.36-2,4.65c-.31.7-.55,1.21-.73,1.54.21-.13.56-.31,1-.54Z"/><path class="cls-5" d="M61.21,55.8l-2.05-2-2.4,1.1-.4-.37,6.88-3.12.23.21-2.87,7-.39-.38Zm-1.62-2.16,1.81,1.73,1.05-2.48c.08-.19.2-.46.36-.79a7.4,7.4,0,0,1-.78.41Z"/><path class="cls-5" d="M65,62.82l-.35-.34,1.3-7.33,0,0c-.48.56-.85,1-1.11,1.25l-3.14,3.26-.33-.32,4.83-5,.35.34-1.3,7.32,0,0c.37-.43.74-.83,1.1-1.21l3.15-3.29.34.33Z"/><path class="cls-5" d="M67.72,65.45l-.35-.34,4.51-4.71-1.64-1.57.32-.33L74.19,62l-.32.34-1.63-1.57Z"/></g></g></svg>