<?xml version="1.0" encoding="utf-8"?>
<!-- Generator: Adobe Illustrator 22.0.0, SVG Export Plug-In . SVG Version: 6.00 Build 0)  -->
<svg version="1.1" id="Layer_1" xmlns="http://www.w3.org/2000/svg" xmlns:xlink="http://www.w3.org/1999/xlink" x="0px" y="0px"
	 viewBox="0 0 117.1 117.6" style="enable-background:new 0 0 117.1 117.6;" xml:space="preserve">
<style type="text/css">
	.st0{fill:#FFB600;}
	.st1{enable-background:new    ;}
	.st2{fill:#FFFFFF;}
</style>
<title>Asset 3</title>
<polygon class="st0" points="117.1,117.6 0,0 30.7,0 117.1,86.9 "/>
<g class="st1">
	<path class="st2" d="M46.8,35.9c-0.6,0.6-1.3,0.9-2.1,0.8c-0.8-0.1-1.6-0.5-2.3-1.3c-0.9-0.9-1.5-1.7-1.8-2.3l0.5-0.5
		c0.3,0.7,0.9,1.5,1.7,2.3c0.6,0.6,1.2,0.9,1.8,1c0.6,0.1,1.2-0.1,1.6-0.6c0.3-0.3,0.4-0.6,0.5-0.9c0.1-0.3,0-0.7-0.1-1.1
		c-0.1-0.4-0.3-1-0.7-1.6c-0.5-1-0.7-1.8-0.7-2.4c0-0.6,0.3-1.1,0.8-1.6c0.5-0.5,1.2-0.8,2-0.7c0.8,0.1,1.5,0.5,2.2,1.1
		c0.7,0.7,1.2,1.5,1.5,2.3l-0.6,0.3c-0.4-0.9-0.8-1.6-1.4-2.1c-0.5-0.5-1.1-0.8-1.7-0.9c-0.6-0.1-1.1,0.1-1.5,0.5
		c-0.3,0.3-0.4,0.5-0.5,0.8c-0.1,0.3-0.1,0.6,0,0.9c0.1,0.4,0.3,0.9,0.7,1.6c0.4,0.8,0.6,1.4,0.7,1.9c0.1,0.5,0.1,0.9,0,1.3
		C47.3,35.2,47.1,35.5,46.8,35.9z"/>
</g>
<g class="st1">
	<path class="st2" d="M55,37.6l-3.3,3.3c-0.6,0.6-1.2,0.9-1.9,0.9c-0.7,0-1.3-0.3-1.9-0.9C47.3,40.3,47,39.6,47,39
		c0-0.7,0.3-1.3,0.9-1.9l3.3-3.3l0.4,0.4l-3.3,3.3c-0.5,0.5-0.7,1-0.7,1.6c0,0.5,0.2,1.1,0.7,1.6c0.5,0.5,1,0.7,1.5,0.7
		c0.5,0,1-0.2,1.5-0.7l3.3-3.3L55,37.6z"/>
	<path class="st2" d="M56.4,39l1.4,1.4c0.6,0.6,1,1.2,1.1,1.7c0.1,0.5-0.1,1-0.5,1.4c-0.3,0.3-0.6,0.5-1,0.5c-0.4,0-0.8-0.1-1.2-0.4
		l0,0c0.3,0.5,0.5,0.9,0.5,1.3c0,0.4-0.2,0.8-0.5,1.1c-0.5,0.5-1,0.7-1.6,0.6s-1.1-0.4-1.7-0.9l-1.6-1.6L56.4,39z M54.2,42L52,44.2
		l1.2,1.2c0.9,0.9,1.8,1,2.6,0.3c0.7-0.7,0.6-1.6-0.4-2.5L54.2,42z M54.5,41.6l1.1,1.1c0.5,0.5,0.9,0.7,1.3,0.8
		c0.4,0.1,0.7-0.1,1.1-0.4s0.5-0.7,0.4-1.1c-0.1-0.4-0.4-0.8-0.9-1.3l-1-1L54.5,41.6z"/>
	<path class="st2" d="M59.9,50.1c-0.4,0.4-0.9,0.6-1.5,0.5c-0.6-0.1-1.1-0.4-1.6-0.9c-0.6-0.6-1-1.2-1.2-1.6l0.4-0.4
		c0.2,0.5,0.6,1.1,1.2,1.6c0.4,0.4,0.8,0.7,1.3,0.7c0.4,0.1,0.8-0.1,1.1-0.4c0.2-0.2,0.3-0.4,0.4-0.6c0-0.2,0-0.5-0.1-0.7
		c-0.1-0.3-0.2-0.7-0.5-1.1c-0.3-0.7-0.5-1.3-0.5-1.7c0-0.4,0.2-0.8,0.5-1.1c0.4-0.4,0.8-0.5,1.4-0.5c0.5,0.1,1,0.3,1.5,0.8
		c0.5,0.5,0.8,1,1.1,1.6l-0.4,0.2c-0.2-0.6-0.6-1.1-1-1.5c-0.4-0.4-0.8-0.6-1.2-0.6c-0.4,0-0.7,0.1-1,0.4c-0.2,0.2-0.3,0.4-0.4,0.6
		c-0.1,0.2,0,0.4,0,0.7c0.1,0.3,0.2,0.6,0.5,1.2c0.3,0.5,0.4,1,0.5,1.3c0.1,0.3,0.1,0.6,0,0.9C60.3,49.6,60.1,49.9,59.9,50.1z"/>
	<path class="st2" d="M66.7,49.8c-0.6-0.6-1.4-0.9-2.1-0.9c-0.8,0-1.5,0.4-2.2,1.1c-0.7,0.7-1.1,1.5-1.2,2.2
		c-0.1,0.8,0.2,1.4,0.9,2.1c0.4,0.4,0.9,0.8,1.3,1l-0.3,0.3c-0.5-0.2-0.9-0.6-1.4-1.1c-0.7-0.7-1.1-1.5-1-2.4
		c0.1-0.9,0.5-1.7,1.3-2.6c0.5-0.5,1.1-0.9,1.7-1.1c0.6-0.2,1.2-0.2,1.8-0.1c0.6,0.2,1.1,0.5,1.6,1c0.5,0.5,0.9,1,1.1,1.6l-0.5,0.2
		C67.4,50.7,67.1,50.2,66.7,49.8z"/>
	<path class="st2" d="M66.7,55.1l-2.2,2.2L64.1,57l5.1-5.1l1.2,1.2c0.6,0.6,1,1.2,1.1,1.8c0.1,0.5-0.1,1-0.6,1.5
		c-0.3,0.3-0.7,0.5-1.1,0.6c-0.4,0.1-0.9-0.1-1.3-0.3l-0.9,3.7l-0.4-0.4l0.9-3.5L66.7,55.1z M67,54.8l1,1c0.4,0.4,0.9,0.7,1.3,0.7
		c0.4,0,0.8-0.1,1.2-0.5c0.4-0.4,0.6-0.8,0.5-1.2c-0.1-0.4-0.3-0.9-0.9-1.4l-0.8-0.8L67,54.8z"/>
	<path class="st2" d="M68.4,61.2l5.1-5.1l0.4,0.4l-5.1,5.1L68.4,61.2z"/>
	<path class="st2" d="M75.3,57.9l1.4,1.4c0.6,0.6,1,1.2,1.1,1.7c0.1,0.5-0.1,1-0.5,1.4c-0.3,0.3-0.6,0.5-1,0.5
		c-0.4,0-0.8-0.1-1.2-0.4l0,0c0.3,0.5,0.5,0.9,0.5,1.3c0,0.4-0.2,0.8-0.5,1.1c-0.5,0.5-1,0.7-1.6,0.6c-0.6-0.1-1.1-0.4-1.7-0.9
		L70.2,63L75.3,57.9z M73.1,60.8l-2.2,2.2l1.2,1.2c0.9,0.9,1.8,1,2.6,0.3c0.7-0.7,0.6-1.5-0.4-2.5L73.1,60.8z M73.4,60.5l1.1,1.1
		c0.5,0.5,0.9,0.7,1.3,0.8c0.4,0.1,0.7-0.1,1.1-0.4s0.5-0.7,0.4-1.1c-0.1-0.4-0.4-0.8-0.9-1.3l-1-1L73.4,60.5z"/>
	<path class="st2" d="M77.5,70.3l-2.8-2.8l5.1-5.1l2.8,2.8l-0.3,0.3l-2.4-2.4L77.9,65l2.3,2.3l-0.3,0.3l-2.3-2.3l-2.2,2.2l2.4,2.4
		L77.5,70.3z"/>
	<path class="st2" d="M81.2,69.6L79,71.8l-0.4-0.4l5.1-5.1l1.2,1.2c0.6,0.6,1,1.2,1.1,1.8c0.1,0.5-0.1,1-0.6,1.5
		c-0.3,0.3-0.7,0.5-1.1,0.6c-0.4,0.1-0.9-0.1-1.3-0.3L82,74.8l-0.4-0.4l0.9-3.5L81.2,69.6z M81.5,69.3l1,1c0.4,0.4,0.9,0.7,1.3,0.7
		s0.8-0.1,1.2-0.5c0.4-0.4,0.6-0.8,0.5-1.2c-0.1-0.4-0.3-0.9-0.9-1.4L83.8,67L81.5,69.3z"/>
</g>
</svg>
