<svg xmlns="http://www.w3.org/2000/svg" viewBox="0 0 1461.36 250.12"><defs><style>.cls-1{fill:#00a5c4;}.cls-2{fill:#fff;}</style></defs><title>Asset 3</title><g id="Layer_2" data-name="Layer 2"><g id="Layer_1-2" data-name="Layer 1"><path class="cls-1" d="M250.56,122.09a123.65,123.65,0,0,1-15.4,63.2c-.6,1-1.1,2.1-1.7,3.2a8.47,8.47,0,0,1-1.4,1.9c-.5.6-1.3,1.4-2.1,1.2s-.4-1.3-.5-1.9c-.9-6.5-1.5-13-2.5-19.5-4.3-28.6-17.5-52.2-40-70.4-8.2-6.6-17.3-11.9-26.1-17.7-5.8-3.8-11.6-7.5-17.4-11.4a37.64,37.64,0,0,1-12.7-13.6c-4.1-7.8-2.8-14.9,2.4-22a14.48,14.48,0,0,1,1.8-1.7c1-.9.9-1.8.1-2.8-1.5-1.8-4.2-2.1-6.7-.8A25.66,25.66,0,0,0,117,41.19c-6.4,13.2-4.9,25.7,4,37.3,3.3,4.4,7.3,8.1,11.2,12,7.9,7.8,16.2,15.2,23.6,23.5,11.1,12.3,19,26.2,22.7,42.5a52.52,52.52,0,0,1,1.4,8.7c1.2,21.1-4,40.9-11.5,60.3-2.1,5.5-4.5,10.9-6.8,16.3a7.39,7.39,0,0,1-5.4,4.6,122.51,122.51,0,0,1-21.7,3.4,125.37,125.37,0,0,1-30-1.4,128.93,128.93,0,0,1-29.2-8.6c-3.6-1.5-4.1-4.7-1.4-7.6,7.5-8,14.8-16.3,21.5-25,10.9-14.4,19.4-30.1,24.5-47.5a63.87,63.87,0,0,0,2.6-24.6c-.9-9.2-4.3-17.4-9.3-25.1A167.74,167.74,0,0,0,101,94.09c-4.5-5.5-8.6-11.4-10.6-18.4-3.6-12.2-1.1-23.4,6.5-33.5a141.17,141.17,0,0,1,9.6-10.9c.8-.8.7-1.2-.2-1.9-2.9-2.2-5.9-2.2-9-.5a48,48,0,0,0-11.4,9.2c-11.9,12.8-17.3,28-16.8,45.4.3,10.1,3.2,19.4,7.7,28.4a30,30,0,0,1,3.6,17.1,31,31,0,0,1-5.7,14.9c-5.6,8.1-12.4,15.1-19.6,21.8-9.7,9-20.2,17.1-30.6,25.3-2.6,2-4.2,1.8-5.6-.7-7.9-13.7-13.9-28.2-16.8-43.9a114.14,114.14,0,0,1,4.2-58.8c9.8-29.3,27.3-52.9,53.7-69.3A114.68,114.68,0,0,1,108.26,1c43.1-4.9,79.8,8.3,109.5,39.8,15.8,16.8,25.5,36.9,30,59.6A113.12,113.12,0,0,1,250.56,122.09Z"/><path class="cls-2" d="M289.16,57.09h14.6v54.5h.5c3-4.4,6.1-8.3,8.9-12l34.5-42.5h18.2L325,105.19l44.1,65h-17.3l-37.2-55.5-10.9,12.4v43.1h-14.6V57.09Z"/><path class="cls-2" d="M379.66,111c0-8.5-.3-15.2-.7-21.9h13l.8,13.3h.4c4-7.6,13.4-15.2,26.8-15.2,11.1,0,28.6,6.7,28.6,34.6v48.4h-14.7v-46.8c0-13.1-4.9-24.1-18.8-24.1-9.7,0-17.2,6.9-19.9,15.1a23.18,23.18,0,0,0-1,6.8v48.9h-14.7V111Z"/><path class="cls-2" d="M546.26,128.89c0,30.1-20.9,43.2-40.4,43.2-22,0-39-16-39-41.8,0-27.2,17.9-43,40.3-43C530.56,87.19,546.26,104.19,546.26,128.89Zm-64.3.9c0,17.8,10.2,31.2,24.6,31.2,14.2,0,24.7-13.2,24.7-31.6,0-13.7-6.9-31.1-24.5-31.1C489.46,98.29,482,114.39,482,129.79Z"/><path class="cls-2" d="M570.66,89.09l10.9,41.2c2.3,9.1,4.4,17.5,6,25.9h.4c1.8-8.2,4.5-17,7.3-25.8l13.3-41.3H621l12.6,40.6c2.9,9.6,5.3,18.2,7.2,26.5h.4c1.5-8.2,3.7-16.8,6.3-26.4l11.6-40.7h14.5l-26.2,81.2H634l-12.3-38.7a257.15,257.15,0,0,1-7.2-26.8h-.3a268.43,268.43,0,0,1-7.4,26.9l-13,38.6h-13.5l-24.5-81.2Z"/><path class="cls-2" d="M705,66.09c0,5-3.5,9.2-9.4,9.2a8.86,8.86,0,0,1-8.9-9.2,9,9,0,0,1,9.2-9.2C701.36,57,704.86,61,705,66.09Zm-16.5,104.1V89h14.7v81.2Z"/><path class="cls-2" d="M727.66,111c0-8.5-.3-15.2-.7-21.9h13l.8,13.3h.4c4-7.6,13.4-15.2,26.8-15.2,11.1,0,28.6,6.7,28.6,34.6v48.4h-14.7v-46.8c0-13.1-4.9-24.1-18.8-24.1-9.7,0-17.2,6.9-19.9,15.1a23.18,23.18,0,0,0-1,6.8v48.9h-14.7V111Z"/><path class="cls-2" d="M890.86,89.09c-.4,5.7-.7,12.3-.7,22.2v47.1c0,18.8-3.8,30-11.6,37.2-8,7.3-19.3,9.7-29.6,9.7-9.8,0-20.5-2.3-27.1-6.7l3.7-11.4a45.61,45.61,0,0,0,23.9,6.5c15.1,0,26.1-7.9,26.1-28.4v-9h-.3c-4.4,7.6-13.3,13.7-25.8,13.7-20.2,0-34.6-17.2-34.6-39.7,0-27.5,17.9-43,36.6-43,14.1,0,21.7,7.2,25.3,14h.3l.6-12.2ZM875.46,121a23,23,0,0,0-.8-6.6c-2.7-8.6-9.8-15.7-20.7-15.7-14.1,0-24.2,11.9-24.2,30.8,0,15.9,8.2,29.2,24,29.2a21.5,21.5,0,0,0,20.5-15.2,25.91,25.91,0,0,0,1.2-7.8Z"/><path class="cls-2" d="M1001.26,165.19a102.14,102.14,0,0,1-34.8,6.2c-17.1,0-31.3-4.3-42.3-14.9-9.7-9.4-15.8-24.4-15.7-42,0-33.7,23.2-58.4,61.1-58.4,13.1,0,23.4,2.9,28.3,5.2l-3.6,11.9c-6-2.7-13.6-4.8-25-4.8-27.4,0-45.4,17.1-45.4,45.4,0,28.7,17.2,45.6,43.7,45.6,9.5,0,16-1.3,19.4-3v-33.7h-22.9V111h37.2v54.2Z"/><path class="cls-2" d="M1096.46,128.89c0,30.1-20.9,43.2-40.4,43.2-22,0-39-16-39-41.8,0-27.2,17.9-43,40.3-43C1080.76,87.19,1096.46,104.19,1096.46,128.89Zm-64.3.9c0,17.8,10.2,31.2,24.6,31.2,14.2,0,24.7-13.2,24.7-31.6,0-13.7-6.9-31.1-24.5-31.1C1039.66,98.29,1032.16,114.39,1032.16,129.79Z"/><path class="cls-2" d="M1185.16,51.09v98.2c0,7.2.3,15.3.7,20.9h-13.1l-.7-14h-.4c-4.5,9.1-14.3,15.9-27.5,15.9-19.7,0-34.8-16.6-34.8-41.2-.1-27.1,16.7-43.6,36.5-43.6,12.5,0,20.8,5.8,24.5,12.3h.3V51.09Zm-14.7,71a33.6,33.6,0,0,0-.6-6.3c-2.3-9.3-10.3-17-21.4-17-15.3,0-24.4,13.4-24.4,31.2,0,16.5,8.2,30.2,24.1,30.2,9.9,0,18.8-6.7,21.6-17.7a24.81,24.81,0,0,0,.7-6.3v-14.1Z"/><path class="cls-2" d="M1206.16,161.59c0-6.2,4.2-10.7,10-10.7s9.9,4.4,9.9,10.7c0,5.9-3.9,10.5-10,10.5C1210.26,172.09,1206.16,167.49,1206.16,161.59Z"/><path class="cls-2" d="M1317.86,128.89c0,30.1-20.9,43.2-40.4,43.2-22,0-39-16-39-41.8,0-27.2,17.9-43,40.3-43C1302.06,87.19,1317.86,104.19,1317.86,128.89Zm-64.4.9c0,17.8,10.2,31.2,24.6,31.2,14.2,0,24.7-13.2,24.7-31.6,0-13.7-6.9-31.1-24.5-31.1C1261.06,98.29,1253.46,114.39,1253.46,129.79Z"/><path class="cls-2" d="M1336.46,114.39c0-9.6-.2-17.7-.7-25.3h12.9l.6,15.9h.5c3.8-10.9,12.7-17.8,22.6-17.8a17.28,17.28,0,0,1,4.1.4v13.9a24.69,24.69,0,0,0-5-.4c-10.4,0-17.8,7.8-19.8,18.9a37.72,37.72,0,0,0-.6,6.9v43.4h-14.7v-55.9Z"/><path class="cls-2" d="M1461.36,89.09c-.4,5.7-.7,12.3-.7,22.2v47.1c0,18.8-3.8,30-11.6,37.2-8,7.3-19.3,9.7-29.6,9.7-9.8,0-20.5-2.3-27.1-6.7l3.7-11.4a45.61,45.61,0,0,0,23.9,6.5c15.1,0,26.1-7.9,26.1-28.4v-9h-.3c-4.4,7.6-13.3,13.7-25.8,13.7-20.2,0-34.6-17.2-34.6-39.7,0-27.5,17.9-43,36.6-43,14.1,0,21.7,7.2,25.3,14h.3l.6-12.2Zm-15.3,31.9a23,23,0,0,0-.8-6.6c-2.7-8.6-9.8-15.7-20.7-15.7-14.1,0-24.2,11.9-24.2,30.8,0,15.9,8.2,29.2,24,29.2a21.5,21.5,0,0,0,20.5-15.2,25.91,25.91,0,0,0,1.2-7.8Z"/></g></g></svg>